<mxfile host="Electron" modified="2024-03-20T19:01:32.708Z" agent="Mozilla/5.0 (Windows NT 10.0; Win64; x64) AppleWebKit/537.36 (KHTML, like Gecko) draw.io/24.0.4 Chrome/120.0.6099.109 Electron/28.1.0 Safari/537.36" etag="SgUwCUIrSkJhuaEGVFiq" version="24.0.4" type="device">
  <diagram name="PÃ¡gina-1" id="kpaop3m7-S0XE58JbnEh">
    <mxGraphModel dx="1216" dy="712" grid="1" gridSize="10" guides="1" tooltips="1" connect="1" arrows="1" fold="1" page="1" pageScale="1" pageWidth="827" pageHeight="1169" math="0" shadow="0">
      <root>
        <mxCell id="0" />
        <mxCell id="1" parent="0" />
        <mxCell id="gWSpZOJTejuKxED0SirG-16" value="&lt;div style=&quot;background-color:#ffffff;padding:0px 0px 0px 2px;&quot;&gt;&lt;div style=&quot;font-family: &amp;quot;Courier New&amp;quot;; font-size: 10pt; font-weight: bold; white-space: pre;&quot;&gt;&lt;p style=&quot;background-color:#e8f2fe;margin:0;&quot;&gt;&lt;span style=&quot;background-color: rgb(255, 255, 150);&quot;&gt;__init__&lt;/span&gt;(&lt;span style=&quot;font-style: italic;&quot;&gt;self&lt;/span&gt;, z, n, interaction)&lt;/p&gt;&lt;/div&gt;&lt;/div&gt;" style="swimlane;fontStyle=0;childLayout=stackLayout;horizontal=1;startSize=26;fillColor=none;horizontalStack=0;resizeParent=1;resizeParentMax=0;resizeLast=0;collapsible=1;marginBottom=0;whiteSpace=wrap;html=1;" vertex="1" parent="1">
          <mxGeometry x="100" y="90" width="300" height="52" as="geometry" />
        </mxCell>
        <mxCell id="gWSpZOJTejuKxED0SirG-17" value="&lt;div style=&quot;background-color: rgb(255, 255, 255); padding: 0px 0px 0px 2px; line-height: 100%;&quot;&gt;&lt;div style=&quot;font-family: &amp;quot;Courier New&amp;quot;; font-size: 10pt; font-weight: bold; white-space: pre; line-height: 100%;&quot;&gt;&lt;p style=&quot;background-color: rgb(232, 242, 254); margin: 0px; line-height: 100%;&quot;&gt;_checkExecutorSettings&lt;/p&gt;&lt;/div&gt;&lt;/div&gt;" style="text;strokeColor=none;fillColor=none;align=left;verticalAlign=top;spacingLeft=4;spacingRight=4;overflow=hidden;rotatable=0;points=[[0,0.5],[1,0.5]];portConstraint=eastwest;whiteSpace=wrap;html=1;" vertex="1" parent="gWSpZOJTejuKxED0SirG-16">
          <mxGeometry y="26" width="300" height="26" as="geometry" />
        </mxCell>
        <mxCell id="gWSpZOJTejuKxED0SirG-20" value="&lt;div style=&quot;background-color:#ffffff;padding:0px 0px 0px 2px;&quot;&gt;&lt;div style=&quot;font-family: &amp;quot;Courier New&amp;quot;; font-size: 10pt; font-weight: bold; white-space: pre;&quot;&gt;&lt;p style=&quot;background-color:#e8f2fe;margin:0;&quot;&gt;_Base1DTaurusExecutor&lt;/p&gt;&lt;/div&gt;&lt;/div&gt;" style="shape=umlFrame;whiteSpace=wrap;html=1;pointerEvents=0;width=180;height=30;" vertex="1" parent="1">
          <mxGeometry x="40" y="40" width="920" height="1010" as="geometry" />
        </mxCell>
        <mxCell id="gWSpZOJTejuKxED0SirG-29" value="&lt;span style=&quot;font-family: &amp;quot;Courier New&amp;quot;; font-size: 13.3333px; white-space: pre; background-color: rgb(255, 255, 150);&quot;&gt;setInputCalculationArguments&lt;/span&gt;&lt;span style=&quot;font-family: &amp;quot;Courier New&amp;quot;; font-size: 13.3333px; white-space: pre; background-color: rgb(255, 255, 255);&quot;&gt;(&lt;/span&gt;&lt;span style=&quot;font-family: &amp;quot;Courier New&amp;quot;; font-size: 10pt; white-space: pre; background-color: rgb(255, 255, 255);&quot;&gt;**input_kwargs)&lt;/span&gt;" style="swimlane;fontStyle=1;align=center;verticalAlign=top;childLayout=stackLayout;horizontal=1;startSize=26;horizontalStack=0;resizeParent=1;resizeParentMax=0;resizeLast=0;collapsible=1;marginBottom=0;whiteSpace=wrap;html=1;" vertex="1" parent="1">
          <mxGeometry x="100" y="160" width="450" height="160" as="geometry" />
        </mxCell>
        <mxCell id="gWSpZOJTejuKxED0SirG-30" value="&lt;span style=&quot;font-family: &amp;quot;Courier New&amp;quot;; font-size: 13.3333px; font-weight: 700; text-align: center; white-space: pre; background-color: rgb(255, 255, 255);&quot;&gt;core_calc&lt;/span&gt;&lt;span style=&quot;font-family: &amp;quot;Courier New&amp;quot;; font-size: 13.3333px; font-weight: 700; text-align: center; white-space: pre; background-color: rgb(255, 255, 255);&quot;&gt;, axial_calc, &lt;/span&gt;&lt;span style=&quot;font-family: &amp;quot;Courier New&amp;quot;; font-size: 10pt; font-weight: 700; text-align: center; white-space: pre; background-color: rgb(255, 255, 255);&quot;&gt;spherical_calc=&lt;/span&gt;&lt;span style=&quot;font-family: &amp;quot;Courier New&amp;quot;; font-size: 10pt; font-weight: 700; text-align: center; white-space: pre; background-color: rgb(255, 255, 255); color: rgb(0, 0, 255);&quot;&gt;False&lt;/span&gt;" style="text;strokeColor=none;fillColor=none;align=left;verticalAlign=top;spacingLeft=4;spacingRight=4;overflow=hidden;rotatable=0;points=[[0,0.5],[1,0.5]];portConstraint=eastwest;whiteSpace=wrap;html=1;" vertex="1" parent="gWSpZOJTejuKxED0SirG-29">
          <mxGeometry y="26" width="450" height="24" as="geometry" />
        </mxCell>
        <mxCell id="gWSpZOJTejuKxED0SirG-31" value="" style="line;strokeWidth=1;fillColor=none;align=left;verticalAlign=middle;spacingTop=-1;spacingLeft=3;spacingRight=3;rotatable=0;labelPosition=right;points=[];portConstraint=eastwest;strokeColor=inherit;" vertex="1" parent="gWSpZOJTejuKxED0SirG-29">
          <mxGeometry y="50" width="450" height="8" as="geometry" />
        </mxCell>
        <mxCell id="gWSpZOJTejuKxED0SirG-32" value="+ method(type):&amp;nbsp;&lt;span style=&quot;background-color: rgb(255, 255, 150); font-family: &amp;quot;Courier New&amp;quot;; font-size: 10pt; font-weight: bold; white-space: pre;&quot;&gt;setUpValenceSpaceCalculation&lt;/span&gt;" style="text;strokeColor=none;fillColor=none;align=left;verticalAlign=top;spacingLeft=4;spacingRight=4;overflow=hidden;rotatable=0;points=[[0,0.5],[1,0.5]];portConstraint=eastwest;whiteSpace=wrap;html=1;" vertex="1" parent="gWSpZOJTejuKxED0SirG-29">
          <mxGeometry y="58" width="450" height="26" as="geometry" />
        </mxCell>
        <mxCell id="gWSpZOJTejuKxED0SirG-33" value="+ method(type):&amp;nbsp;&lt;span style=&quot;background-color: rgb(255, 255, 150); font-family: &amp;quot;Courier New&amp;quot;; font-size: 10pt; font-weight: bold; white-space: pre;&quot;&gt;setUpNoCoreAxialCalculation&lt;/span&gt;" style="text;strokeColor=none;fillColor=none;align=left;verticalAlign=top;spacingLeft=4;spacingRight=4;overflow=hidden;rotatable=0;points=[[0,0.5],[1,0.5]];portConstraint=eastwest;whiteSpace=wrap;html=1;" vertex="1" parent="gWSpZOJTejuKxED0SirG-29">
          <mxGeometry y="84" width="450" height="26" as="geometry" />
        </mxCell>
        <mxCell id="gWSpZOJTejuKxED0SirG-34" value="+ method(type):&amp;nbsp;&lt;span style=&quot;background-color: rgb(255, 255, 150); font-family: &amp;quot;Courier New&amp;quot;; font-size: 10pt; font-weight: bold; white-space: pre;&quot;&gt;setParameters(&lt;/span&gt;&lt;span style=&quot;font-family: &amp;quot;Courier New&amp;quot;; font-size: 13.3333px; font-weight: 700; text-align: center; white-space: pre; background-color: rgb(255, 255, 255);&quot;&gt;**input_kwargs&lt;/span&gt;&lt;span style=&quot;background-color: rgb(255, 255, 150); font-family: &amp;quot;Courier New&amp;quot;; font-size: 10pt; font-weight: bold; white-space: pre;&quot;&gt;)&lt;/span&gt;" style="text;strokeColor=none;fillColor=none;align=left;verticalAlign=top;spacingLeft=4;spacingRight=4;overflow=hidden;rotatable=0;points=[[0,0.5],[1,0.5]];portConstraint=eastwest;whiteSpace=wrap;html=1;" vertex="1" parent="gWSpZOJTejuKxED0SirG-29">
          <mxGeometry y="110" width="450" height="26" as="geometry" />
        </mxCell>
        <mxCell id="gWSpZOJTejuKxED0SirG-35" value="&lt;font style=&quot;font-size: 11px;&quot;&gt;+ defined attributes&amp;nbsp;&lt;/font&gt;&lt;span style=&quot;font-size: 11px; background-color: rgb(255, 255, 150); font-family: &amp;quot;Courier New&amp;quot;; font-weight: bold; white-space: pre;&quot;&gt;axialSymetryRequired, &lt;/span&gt;&lt;span style=&quot;font-size: 11px; background-color: rgb(255, 255, 150); font-family: &amp;quot;Courier New&amp;quot;; font-weight: bold; white-space: pre;&quot;&gt;sphericalSymmetryRequired&lt;/span&gt;" style="text;strokeColor=none;fillColor=none;align=left;verticalAlign=top;spacingLeft=4;spacingRight=4;overflow=hidden;rotatable=0;points=[[0,0.5],[1,0.5]];portConstraint=eastwest;whiteSpace=wrap;html=1;" vertex="1" parent="gWSpZOJTejuKxED0SirG-29">
          <mxGeometry y="136" width="450" height="24" as="geometry" />
        </mxCell>
        <mxCell id="gWSpZOJTejuKxED0SirG-39" value="&lt;div style=&quot;background-color:#ffffff;padding:0px 0px 0px 2px;&quot;&gt;&lt;div style=&quot;font-family: &amp;quot;Courier New&amp;quot;; font-size: 10pt; font-weight: bold; white-space: pre;&quot;&gt;&lt;p style=&quot;background-color:#e8f2fe;margin:0;&quot;&gt;&lt;span style=&quot;color:#0000ff;&quot;&gt;&lt;/span&gt; defineDeformationRange(q1, q2, N)&lt;/p&gt;&lt;/div&gt;&lt;/div&gt;" style="swimlane;fontStyle=0;childLayout=stackLayout;horizontal=1;startSize=26;fillColor=none;horizontalStack=0;resizeParent=1;resizeParentMax=0;resizeLast=0;collapsible=1;marginBottom=0;whiteSpace=wrap;html=1;" vertex="1" parent="1">
          <mxGeometry x="100" y="340" width="320" height="104" as="geometry" />
        </mxCell>
        <mxCell id="gWSpZOJTejuKxED0SirG-40" value="+ field: &amp;lt;list&amp;gt;&amp;nbsp;&lt;span style=&quot;font-family: &amp;quot;Courier New&amp;quot;; font-size: 11px; font-weight: bold; white-space: pre; background-color: rgb(255, 255, 150); text-decoration-line: underline; text-decoration-style: solid; text-decoration-color: rgb(0, 102, 204); color: rgb(0, 102, 204);&quot;&gt;_deformations_map&lt;/span&gt;&lt;span style=&quot;background-color: rgb(232, 242, 254); font-family: &amp;quot;Courier New&amp;quot;; font-size: 11px; font-weight: bold; white-space: pre;&quot;&gt;[&lt;/span&gt;&lt;span style=&quot;font-family: &amp;quot;Courier New&amp;quot;; font-size: 11px; font-weight: bold; white-space: pre; background-color: rgb(251, 251, 251);&quot;&gt;&lt;font color=&quot;#800000&quot; style=&quot;font-size: 11px;&quot;&gt;0:1&lt;/font&gt;&lt;/span&gt;&lt;span style=&quot;background-color: rgb(232, 242, 254); font-family: &amp;quot;Courier New&amp;quot;; font-size: 11px; font-weight: bold; white-space: pre;&quot;&gt;]&lt;/span&gt;" style="text;strokeColor=none;fillColor=none;align=left;verticalAlign=top;spacingLeft=4;spacingRight=4;overflow=hidden;rotatable=0;points=[[0,0.5],[1,0.5]];portConstraint=eastwest;whiteSpace=wrap;html=1;fontSize=11;" vertex="1" parent="gWSpZOJTejuKxED0SirG-39">
          <mxGeometry y="26" width="320" height="26" as="geometry" />
        </mxCell>
        <mxCell id="gWSpZOJTejuKxED0SirG-41" value="+ field: &amp;lt;list&amp;gt;&amp;nbsp;&lt;span style=&quot;background-color: rgb(255, 255, 150); font-family: &amp;quot;Courier New&amp;quot;; font-size: 11px; font-weight: bold; white-space: pre;&quot;&gt;deform_prolate&lt;/span&gt;" style="text;strokeColor=none;fillColor=none;align=left;verticalAlign=top;spacingLeft=4;spacingRight=4;overflow=hidden;rotatable=0;points=[[0,0.5],[1,0.5]];portConstraint=eastwest;whiteSpace=wrap;html=1;fontSize=11;" vertex="1" parent="gWSpZOJTejuKxED0SirG-39">
          <mxGeometry y="52" width="320" height="26" as="geometry" />
        </mxCell>
        <mxCell id="gWSpZOJTejuKxED0SirG-42" value="+ field: &amp;lt;list&amp;gt;&amp;nbsp;&lt;span style=&quot;background-color: rgb(232, 242, 254); font-family: &amp;quot;Courier New&amp;quot;; font-size: 11px; font-weight: bold; white-space: pre;&quot;&gt;deform_oblate&lt;/span&gt;" style="text;strokeColor=none;fillColor=none;align=left;verticalAlign=top;spacingLeft=4;spacingRight=4;overflow=hidden;rotatable=0;points=[[0,0.5],[1,0.5]];portConstraint=eastwest;whiteSpace=wrap;html=1;fontSize=11;" vertex="1" parent="gWSpZOJTejuKxED0SirG-39">
          <mxGeometry y="78" width="320" height="26" as="geometry" />
        </mxCell>
        <mxCell id="gWSpZOJTejuKxED0SirG-44" value="setUp&amp;nbsp; &amp;nbsp;- modifiable -" style="swimlane;fontStyle=1;align=center;verticalAlign=top;childLayout=stackLayout;horizontal=1;startSize=26;horizontalStack=0;resizeParent=1;resizeParentMax=0;resizeLast=0;collapsible=1;marginBottom=0;whiteSpace=wrap;html=1;fillColor=#d5e8d4;strokeColor=#82b366;" vertex="1" parent="1">
          <mxGeometry x="100" y="470" width="320" height="70" as="geometry" />
        </mxCell>
        <mxCell id="gWSpZOJTejuKxED0SirG-45" value="defiene the folder to export for the DTYPE, instance actions before run and 1st running execution" style="text;strokeColor=none;fillColor=none;align=left;verticalAlign=top;spacingLeft=4;spacingRight=4;overflow=hidden;rotatable=0;points=[[0,0.5],[1,0.5]];portConstraint=eastwest;whiteSpace=wrap;html=1;" vertex="1" parent="gWSpZOJTejuKxED0SirG-44">
          <mxGeometry y="26" width="320" height="44" as="geometry" />
        </mxCell>
        <mxCell id="gWSpZOJTejuKxED0SirG-48" value="&lt;div style=&quot;background-color:#ffffff;padding:0px 0px 0px 2px;&quot;&gt;&lt;div style=&quot;font-family: &amp;quot;Courier New&amp;quot;; font-size: 10pt; white-space: pre;&quot;&gt;&lt;p style=&quot;background-color:#e8f2fe;margin:0;&quot;&gt;&lt;span style=&quot;background-color: rgb(255, 255, 150);&quot;&gt;setUpExecution&lt;/span&gt;(reset_seed=&lt;span style=&quot;color:#0000ff;&quot;&gt;False&lt;/span&gt;, **)&lt;/p&gt;&lt;/div&gt;&lt;/div&gt;" style="swimlane;fontStyle=1;align=center;verticalAlign=top;childLayout=stackLayout;horizontal=1;startSize=26;horizontalStack=0;resizeParent=1;resizeParentMax=0;resizeLast=0;collapsible=1;marginBottom=0;whiteSpace=wrap;html=1;fillColor=#d5e8d4;strokeColor=#82b366;" vertex="1" parent="1">
          <mxGeometry x="100" y="560" width="370" height="160" as="geometry" />
        </mxCell>
        <mxCell id="gWSpZOJTejuKxED0SirG-49" value="First convergence, set up for the&amp;nbsp; ongoing run. Example for B20:" style="text;strokeColor=none;fillColor=none;align=left;verticalAlign=top;spacingLeft=4;spacingRight=4;overflow=hidden;rotatable=0;points=[[0,0.5],[1,0.5]];portConstraint=eastwest;whiteSpace=wrap;html=1;" vertex="1" parent="gWSpZOJTejuKxED0SirG-48">
          <mxGeometry y="26" width="370" height="26" as="geometry" />
        </mxCell>
        <mxCell id="gWSpZOJTejuKxED0SirG-50" value="" style="line;strokeWidth=1;fillColor=none;align=left;verticalAlign=middle;spacingTop=-1;spacingLeft=3;spacingRight=3;rotatable=0;labelPosition=right;points=[];portConstraint=eastwest;strokeColor=inherit;" vertex="1" parent="gWSpZOJTejuKxED0SirG-48">
          <mxGeometry y="52" width="370" height="8" as="geometry" />
        </mxCell>
        <mxCell id="gWSpZOJTejuKxED0SirG-53" value="+&amp;nbsp;&lt;span style=&quot;background-color: rgb(255, 255, 150); font-family: &amp;quot;Courier New&amp;quot;; font-size: 10pt; font-weight: bold; white-space: pre;&quot;&gt;_oddNumberParitySeedConvergence&lt;/span&gt;&lt;div&gt;&lt;div style=&quot;background-color:#ffffff;padding:0px 0px 0px 2px;&quot;&gt;&lt;div style=&quot;font-family: &amp;quot;Courier New&amp;quot;; font-size: 10pt; font-weight: bold; white-space: pre;&quot;&gt;&lt;p style=&quot;background-color:#e8f2fe;margin:0;&quot;&gt;&lt;span style=&quot;background-color: rgb(255, 255, 150);&quot;&gt;_evenNumberParitySeedConvergence&lt;/span&gt;&lt;/p&gt;&lt;/div&gt;&lt;/div&gt;&lt;/div&gt;" style="text;strokeColor=none;fillColor=none;align=left;verticalAlign=top;spacingLeft=4;spacingRight=4;overflow=hidden;rotatable=0;points=[[0,0.5],[1,0.5]];portConstraint=eastwest;whiteSpace=wrap;html=1;" vertex="1" parent="gWSpZOJTejuKxED0SirG-48">
          <mxGeometry y="60" width="370" height="40" as="geometry" />
        </mxCell>
        <mxCell id="gWSpZOJTejuKxED0SirG-51" value="+ method(type):&amp;nbsp;&lt;span style=&quot;background-color: rgb(255, 255, 150); font-family: &amp;quot;Courier New&amp;quot;; font-size: 10pt; font-weight: bold; white-space: pre;&quot;&gt;_setDeformationFromMinimum&lt;/span&gt;" style="text;strokeColor=none;fillColor=none;align=left;verticalAlign=top;spacingLeft=4;spacingRight=4;overflow=hidden;rotatable=0;points=[[0,0.5],[1,0.5]];portConstraint=eastwest;whiteSpace=wrap;html=1;" vertex="1" parent="gWSpZOJTejuKxED0SirG-48">
          <mxGeometry y="100" width="370" height="30" as="geometry" />
        </mxCell>
        <mxCell id="gWSpZOJTejuKxED0SirG-54" value="+ method(type):&amp;nbsp;&lt;span style=&quot;background-color: rgb(232, 242, 254); font-family: &amp;quot;Courier New&amp;quot;; font-size: 10pt; font-weight: bold; white-space: pre;&quot;&gt;inputObj.&lt;/span&gt;&lt;span style=&quot;font-family: &amp;quot;Courier New&amp;quot;; font-size: 10pt; font-weight: bold; white-space: pre; background-color: rgb(255, 255, 150);&quot;&gt;setParameters(**)&lt;/span&gt;" style="text;strokeColor=none;fillColor=none;align=left;verticalAlign=top;spacingLeft=4;spacingRight=4;overflow=hidden;rotatable=0;points=[[0,0.5],[1,0.5]];portConstraint=eastwest;whiteSpace=wrap;html=1;" vertex="1" parent="gWSpZOJTejuKxED0SirG-48">
          <mxGeometry y="130" width="370" height="30" as="geometry" />
        </mxCell>
        <mxCell id="gWSpZOJTejuKxED0SirG-55" value="&lt;div style=&quot;background-color:#ffffff;padding:0px 0px 0px 2px;&quot;&gt;&lt;div style=&quot;font-family: &amp;quot;Courier New&amp;quot;; font-size: 10pt; white-space: pre;&quot;&gt;&lt;p style=&quot;background-color:#e8f2fe;margin:0;&quot;&gt;&lt;span style=&quot;background-color: rgb(255, 255, 150);&quot;&gt;run&lt;/span&gt;&lt;/p&gt;&lt;/div&gt;&lt;/div&gt;" style="swimlane;fontStyle=1;align=center;verticalAlign=top;childLayout=stackLayout;horizontal=1;startSize=26;horizontalStack=0;resizeParent=1;resizeParentMax=0;resizeLast=0;collapsible=1;marginBottom=0;whiteSpace=wrap;html=1;" vertex="1" parent="1">
          <mxGeometry x="100" y="740" width="430" height="164" as="geometry" />
        </mxCell>
        <mxCell id="gWSpZOJTejuKxED0SirG-56" value="+ selector:&amp;nbsp;&lt;span style=&quot;background-color: rgb(232, 242, 254); font-family: &amp;quot;Courier New&amp;quot;; font-size: 10pt; font-weight: bold; white-space: pre;&quot;&gt;ITERATIVE_METHOD&lt;/span&gt;" style="text;strokeColor=none;fillColor=none;align=left;verticalAlign=top;spacingLeft=4;spacingRight=4;overflow=hidden;rotatable=0;points=[[0,0.5],[1,0.5]];portConstraint=eastwest;whiteSpace=wrap;html=1;" vertex="1" parent="gWSpZOJTejuKxED0SirG-55">
          <mxGeometry y="26" width="430" height="26" as="geometry" />
        </mxCell>
        <mxCell id="gWSpZOJTejuKxED0SirG-57" value="" style="line;strokeWidth=1;fillColor=none;align=left;verticalAlign=middle;spacingTop=-1;spacingLeft=3;spacingRight=3;rotatable=0;labelPosition=right;points=[];portConstraint=eastwest;strokeColor=inherit;" vertex="1" parent="gWSpZOJTejuKxED0SirG-55">
          <mxGeometry y="52" width="430" height="8" as="geometry" />
        </mxCell>
        <mxCell id="gWSpZOJTejuKxED0SirG-58" value="+ method(type):&amp;nbsp;&lt;span style=&quot;background-color: rgb(255, 255, 150); font-family: &amp;quot;Courier New&amp;quot;; font-size: 10pt; font-weight: bold; white-space: pre;&quot;&gt;_checkExecutorSettings()&lt;/span&gt;" style="text;strokeColor=none;fillColor=none;align=left;verticalAlign=top;spacingLeft=4;spacingRight=4;overflow=hidden;rotatable=0;points=[[0,0.5],[1,0.5]];portConstraint=eastwest;whiteSpace=wrap;html=1;" vertex="1" parent="gWSpZOJTejuKxED0SirG-55">
          <mxGeometry y="60" width="430" height="26" as="geometry" />
        </mxCell>
        <mxCell id="gWSpZOJTejuKxED0SirG-59" value="+ method(&lt;span style=&quot;background-color: rgb(255, 255, 150); font-family: &amp;quot;Courier New&amp;quot;; font-size: 10pt; font-weight: bold; white-space: pre;&quot;&gt;VARIABLE_STEP&lt;/span&gt;&lt;span style=&quot;background-color: initial;&quot;&gt;):&amp;nbsp;&lt;/span&gt;&lt;span style=&quot;background-color: rgb(255, 255, 150); font-family: &amp;quot;Courier New&amp;quot;; font-size: 10pt; font-weight: bold; white-space: pre;&quot;&gt;_runVariableStep()&lt;/span&gt;" style="text;strokeColor=none;fillColor=none;align=left;verticalAlign=top;spacingLeft=4;spacingRight=4;overflow=hidden;rotatable=0;points=[[0,0.5],[1,0.5]];portConstraint=eastwest;whiteSpace=wrap;html=1;" vertex="1" parent="gWSpZOJTejuKxED0SirG-55">
          <mxGeometry y="86" width="430" height="26" as="geometry" />
        </mxCell>
        <mxCell id="gWSpZOJTejuKxED0SirG-60" value="+ method(type):&amp;nbsp;&lt;span style=&quot;background-color: rgb(255, 255, 150); font-family: &amp;quot;Courier New&amp;quot;; font-size: 10pt; font-weight: bold; white-space: pre;&quot;&gt;_runUntilConvergence()&lt;/span&gt;" style="text;strokeColor=none;fillColor=none;align=left;verticalAlign=top;spacingLeft=4;spacingRight=4;overflow=hidden;rotatable=0;points=[[0,0.5],[1,0.5]];portConstraint=eastwest;whiteSpace=wrap;html=1;" vertex="1" parent="gWSpZOJTejuKxED0SirG-55">
          <mxGeometry y="112" width="430" height="26" as="geometry" />
        </mxCell>
        <mxCell id="gWSpZOJTejuKxED0SirG-61" value="+ method(&lt;span style=&quot;background-color: rgb(255, 255, 150); font-family: &amp;quot;Courier New&amp;quot;; font-size: 10pt; font-weight: bold; white-space: pre;&quot;&gt;EVEN_STEP_SWEEPING&lt;/span&gt;&lt;span style=&quot;background-color: initial;&quot;&gt;):&amp;nbsp;&lt;/span&gt;&lt;span style=&quot;background-color: rgb(255, 255, 150); font-family: &amp;quot;Courier New&amp;quot;; font-size: 10pt; font-weight: bold; white-space: pre;&quot;&gt;_run_backwardsSweeping()&lt;/span&gt;" style="text;strokeColor=none;fillColor=none;align=left;verticalAlign=top;spacingLeft=4;spacingRight=4;overflow=hidden;rotatable=0;points=[[0,0.5],[1,0.5]];portConstraint=eastwest;whiteSpace=wrap;html=1;" vertex="1" parent="gWSpZOJTejuKxED0SirG-55">
          <mxGeometry y="138" width="430" height="26" as="geometry" />
        </mxCell>
        <mxCell id="gWSpZOJTejuKxED0SirG-64" value="&lt;div style=&quot;background-color:#ffffff;padding:0px 0px 0px 2px;&quot;&gt;&lt;div style=&quot;font-family: &amp;quot;Courier New&amp;quot;; font-size: 10pt; white-space: pre;&quot;&gt;&lt;p style=&quot;background-color:#e8f2fe;margin:0;&quot;&gt;&lt;span style=&quot;background-color: rgb(255, 255, 150);&quot;&gt;_executeProgram()&lt;/span&gt;&lt;/p&gt;&lt;/div&gt;&lt;/div&gt;" style="swimlane;fontStyle=1;align=center;verticalAlign=top;childLayout=stackLayout;horizontal=1;startSize=26;horizontalStack=0;resizeParent=1;resizeParentMax=0;resizeLast=0;collapsible=1;marginBottom=0;whiteSpace=wrap;html=1;" vertex="1" parent="1">
          <mxGeometry x="570" y="750" width="350" height="188" as="geometry" />
        </mxCell>
        <mxCell id="gWSpZOJTejuKxED0SirG-65" value="+ field: bool&amp;nbsp;&lt;span style=&quot;background-color: rgb(232, 242, 254); font-family: &amp;quot;Courier New&amp;quot;; font-size: 10pt; font-weight: bold; white-space: pre;&quot;&gt;base_execution&lt;/span&gt;" style="text;strokeColor=none;fillColor=none;align=left;verticalAlign=top;spacingLeft=4;spacingRight=4;overflow=hidden;rotatable=0;points=[[0,0.5],[1,0.5]];portConstraint=eastwest;whiteSpace=wrap;html=1;" vertex="1" parent="gWSpZOJTejuKxED0SirG-64">
          <mxGeometry y="26" width="350" height="26" as="geometry" />
        </mxCell>
        <mxCell id="gWSpZOJTejuKxED0SirG-66" value="" style="line;strokeWidth=1;fillColor=none;align=left;verticalAlign=middle;spacingTop=-1;spacingLeft=3;spacingRight=3;rotatable=0;labelPosition=right;points=[];portConstraint=eastwest;strokeColor=inherit;" vertex="1" parent="gWSpZOJTejuKxED0SirG-64">
          <mxGeometry y="52" width="350" height="8" as="geometry" />
        </mxCell>
        <mxCell id="gWSpZOJTejuKxED0SirG-67" value="&lt;font style=&quot;font-size: 12px;&quot;&gt;+ method(type):&amp;nbsp;&lt;span style=&quot;background-color: rgb(232, 242, 254); font-family: &amp;quot;Courier New&amp;quot;; font-weight: bold; white-space: pre;&quot;&gt;inputObj.getText4file()&lt;/span&gt;&lt;/font&gt;" style="text;strokeColor=none;fillColor=none;align=left;verticalAlign=top;spacingLeft=4;spacingRight=4;overflow=hidden;rotatable=0;points=[[0,0.5],[1,0.5]];portConstraint=eastwest;whiteSpace=wrap;html=1;" vertex="1" parent="gWSpZOJTejuKxED0SirG-64">
          <mxGeometry y="60" width="350" height="26" as="geometry" />
        </mxCell>
        <mxCell id="gWSpZOJTejuKxED0SirG-69" value="&lt;font style=&quot;font-size: 12px;&quot;&gt;+ method(type):&amp;nbsp;&lt;span style=&quot;font-family: &amp;quot;Courier New&amp;quot;; font-weight: bold; white-space: pre; background-color: rgb(255, 255, 150);&quot;&gt;_getMinimumIterationTimeTaurus&lt;/span&gt;&lt;span style=&quot;background-color: rgb(232, 242, 254); font-family: &amp;quot;Courier New&amp;quot;; font-weight: bold; white-space: pre;&quot;&gt;()&lt;/span&gt;&lt;/font&gt;" style="text;strokeColor=none;fillColor=none;align=left;verticalAlign=top;spacingLeft=4;spacingRight=4;overflow=hidden;rotatable=0;points=[[0,0.5],[1,0.5]];portConstraint=eastwest;whiteSpace=wrap;html=1;" vertex="1" parent="gWSpZOJTejuKxED0SirG-64">
          <mxGeometry y="86" width="350" height="24" as="geometry" />
        </mxCell>
        <mxCell id="gWSpZOJTejuKxED0SirG-70" value="+ method(type):&amp;nbsp;&lt;span style=&quot;background-color: rgb(255, 255, 150); font-family: &amp;quot;Courier New&amp;quot;; font-size: 10pt; font-weight: bold; white-space: pre;&quot;&gt;saveFinalWFprocedure()&lt;/span&gt;" style="text;strokeColor=none;fillColor=none;align=left;verticalAlign=top;spacingLeft=4;spacingRight=4;overflow=hidden;rotatable=0;points=[[0,0.5],[1,0.5]];portConstraint=eastwest;whiteSpace=wrap;html=1;" vertex="1" parent="gWSpZOJTejuKxED0SirG-64">
          <mxGeometry y="110" width="350" height="26" as="geometry" />
        </mxCell>
        <mxCell id="gWSpZOJTejuKxED0SirG-71" value="+ method(type):&amp;nbsp;&lt;span style=&quot;background-color: rgb(255, 255, 150); font-family: &amp;quot;Courier New&amp;quot;; font-size: 10pt; font-weight: bold; white-space: pre;&quot;&gt;executionTearDown()&lt;/span&gt;" style="text;strokeColor=none;fillColor=none;align=left;verticalAlign=top;spacingLeft=4;spacingRight=4;overflow=hidden;rotatable=0;points=[[0,0.5],[1,0.5]];portConstraint=eastwest;whiteSpace=wrap;html=1;" vertex="1" parent="gWSpZOJTejuKxED0SirG-64">
          <mxGeometry y="136" width="350" height="26" as="geometry" />
        </mxCell>
        <mxCell id="gWSpZOJTejuKxED0SirG-72" value="&lt;div style=&quot;background-color:#ffffff;padding:0px 0px 0px 2px;&quot;&gt;&lt;div style=&quot;font-family: &amp;quot;Courier New&amp;quot;; font-size: 10pt; font-weight: bold; white-space: pre;&quot;&gt;&lt;p style=&quot;background-color:#e8f2fe;margin:0;&quot;&gt;&lt;span style=&quot;font-style: italic;&quot;&gt;self&lt;/span&gt;.&lt;span style=&quot;background-color: rgb(255, 255, 150);&quot;&gt;_current_result&lt;/span&gt;&lt;/p&gt;&lt;/div&gt;&lt;/div&gt;" style="text;strokeColor=none;fillColor=none;align=left;verticalAlign=top;spacingLeft=4;spacingRight=4;overflow=hidden;rotatable=0;points=[[0,0.5],[1,0.5]];portConstraint=eastwest;whiteSpace=wrap;html=1;" vertex="1" parent="gWSpZOJTejuKxED0SirG-64">
          <mxGeometry y="162" width="350" height="26" as="geometry" />
        </mxCell>
        <mxCell id="gWSpZOJTejuKxED0SirG-68" style="edgeStyle=orthogonalEdgeStyle;rounded=0;orthogonalLoop=1;jettySize=auto;html=1;exitX=1;exitY=0.5;exitDx=0;exitDy=0;" edge="1" parent="1" source="gWSpZOJTejuKxED0SirG-60" target="gWSpZOJTejuKxED0SirG-64">
          <mxGeometry relative="1" as="geometry" />
        </mxCell>
        <mxCell id="gWSpZOJTejuKxED0SirG-74" value="&lt;div style=&quot;background-color:#ffffff;padding:0px 0px 0px 2px;&quot;&gt;&lt;div style=&quot;font-family: &amp;quot;Courier New&amp;quot;; font-size: 10pt; white-space: pre;&quot;&gt;&lt;p style=&quot;background-color:#e8f2fe;margin:0;&quot;&gt;&lt;span style=&quot;background-color: rgb(255, 255, 150);&quot;&gt;gobalTearDown(&lt;/span&gt;&lt;span style=&quot;font-size: 10pt;&quot;&gt;zip_bufolder&lt;/span&gt;&lt;span style=&quot;background-color: rgb(255, 255, 150); font-size: 10pt;&quot;&gt;)&lt;/span&gt;&lt;/p&gt;&lt;/div&gt;&lt;/div&gt;" style="swimlane;fontStyle=1;align=center;verticalAlign=top;childLayout=stackLayout;horizontal=1;startSize=26;horizontalStack=0;resizeParent=1;resizeParentMax=0;resizeLast=0;collapsible=1;marginBottom=0;whiteSpace=wrap;html=1;fillColor=#d5e8d4;strokeColor=#82b366;" vertex="1" parent="1">
          <mxGeometry x="100" y="930" width="330" height="86" as="geometry" />
        </mxCell>
        <mxCell id="gWSpZOJTejuKxED0SirG-75" value="+ field: type" style="text;strokeColor=none;fillColor=none;align=left;verticalAlign=top;spacingLeft=4;spacingRight=4;overflow=hidden;rotatable=0;points=[[0,0.5],[1,0.5]];portConstraint=eastwest;whiteSpace=wrap;html=1;" vertex="1" parent="gWSpZOJTejuKxED0SirG-74">
          <mxGeometry y="26" width="330" height="26" as="geometry" />
        </mxCell>
        <mxCell id="gWSpZOJTejuKxED0SirG-76" value="" style="line;strokeWidth=1;fillColor=none;align=left;verticalAlign=middle;spacingTop=-1;spacingLeft=3;spacingRight=3;rotatable=0;labelPosition=right;points=[];portConstraint=eastwest;strokeColor=inherit;" vertex="1" parent="gWSpZOJTejuKxED0SirG-74">
          <mxGeometry y="52" width="330" height="8" as="geometry" />
        </mxCell>
        <mxCell id="gWSpZOJTejuKxED0SirG-77" value="+ create a VAP folder with the list.dat for PAV calculations" style="text;strokeColor=none;fillColor=none;align=left;verticalAlign=top;spacingLeft=4;spacingRight=4;overflow=hidden;rotatable=0;points=[[0,0.5],[1,0.5]];portConstraint=eastwest;whiteSpace=wrap;html=1;" vertex="1" parent="gWSpZOJTejuKxED0SirG-74">
          <mxGeometry y="60" width="330" height="26" as="geometry" />
        </mxCell>
      </root>
    </mxGraphModel>
  </diagram>
</mxfile>
